<svg id="Layer_1" data-name="Layer 1" xmlns="http://www.w3.org/2000/svg" viewBox="0 0 111 90">
  <title>wide</title>
  <path d="M6.88,17h2l9.74,21c.76,1.62,1.62,3.77,1.62,3.77h.1S21.21,39.64,22,38l9.74-21h2l2.67,33.43H34.34l-2.05-25.5c-.14-1.62-.14-4.44-.14-4.44H32s-1,2.82-1.72,4.44L21.35,44h-2.1L10.32,24.93C9.6,23.36,8.55,20.4,8.55,20.4h-.1s0,2.91-.14,4.54L6.26,50.44H4.2Z"/>
  <path d="M49.11,43.15h.79v-.41c0-2.65-1.36-3.56-3.27-3.56a5.61,5.61,0,0,0-3.41,1.15l-.57-.81a6.25,6.25,0,0,1,4-1.31c2.75,0,4.23,1.53,4.23,4.51v7.71h-1V48.86a5.45,5.45,0,0,1,.1-1.07h0a4.59,4.59,0,0,1-4.18,2.94c-1.93,0-4.06-1.07-4.06-3.46C41.71,43.2,47,43.15,49.11,43.15Zm-3.3,6.64c2.6,0,4.08-2.7,4.08-5.06v-.64h-.76c-2,0-6.38,0-6.38,3.1A2.75,2.75,0,0,0,45.82,49.79Z"/>
  <path d="M54.84,33.72H56v1.74H54.84Zm.1,4.78h1V50.44h-1Z"/>
  <path d="M66.57,43.15h.79v-.41c0-2.65-1.36-3.56-3.27-3.56a5.61,5.61,0,0,0-3.41,1.15l-.57-.81a6.25,6.25,0,0,1,4-1.31c2.75,0,4.23,1.53,4.23,4.51v7.71h-1V48.86a5.45,5.45,0,0,1,.1-1.07h0a4.59,4.59,0,0,1-4.18,2.94c-1.93,0-4.06-1.07-4.06-3.46C59.16,43.2,64.44,43.15,66.57,43.15Zm-3.3,6.64c2.6,0,4.08-2.7,4.08-5.06v-.64h-.76c-2,0-6.38,0-6.38,3.1A2.75,2.75,0,0,0,63.27,49.79Z"/>
  <path d="M11.8,37.49H30.09v1.91H13.85V53.11H27.17V55H13.85V69H31v1.91H11.8Z"/>
  <path d="M36,59h1v2.27a5,5,0,0,1-.1,1h0c.6-1.84,1.93-3.34,3.82-3.34a3.74,3.74,0,0,1,.69.07v1a3.89,3.89,0,0,0-.55,0c-1.86,0-3,1.58-3.56,3.34A8.48,8.48,0,0,0,37,65.77v5.16H36Z"/><path d="M44,54.21h1.19V56H44Zm.1,4.78h1V70.93h-1Z"/><path d="M54.61,58.7a5.76,5.76,0,0,1,4.27,1.7l-.62.81a5.19,5.19,0,0,0-3.65-1.53,5.28,5.28,0,0,0,0,10.56,5.27,5.27,0,0,0,4-1.72l.53.84a6.09,6.09,0,0,1-4.51,1.86A6,6,0,0,1,48.45,65,6.07,6.07,0,0,1,54.61,58.7Z"/><path d="M62.44,54.21h1v9.48h2.13L69.43,59h1.31l-4.32,5.13v0l4.73,6.76H69.89l-4.32-6.3H63.44v6.3h-1Z"/><path d="M73.52,68.73a5.2,5.2,0,0,0,3.7,1.5c1.46,0,2.75-.76,2.75-2.25,0-3-6.57-2.17-6.57-6.07,0-2.12,1.79-3.22,3.82-3.22A4.71,4.71,0,0,1,80.75,60l-.6.81a4.09,4.09,0,0,0-3-1.12c-1.36,0-2.7.62-2.7,2.17C74.45,65,81,64,81,68c0,1.91-1.62,3.22-3.82,3.22a5.78,5.78,0,0,1-4.32-1.72Z"/><path d="M89.61,58.7a6.14,6.14,0,0,1,6.19,6.19,6.19,6.19,0,1,1-12.37,0A6.14,6.14,0,0,1,89.61,58.7Zm0,11.53a5.19,5.19,0,0,0,5.13-5.35,5.13,5.13,0,1,0-10.27,0A5.19,5.19,0,0,0,89.61,70.23Z"/><path d="M99.11,59h1v2.1a5,5,0,0,1-.1,1h0a5.5,5.5,0,0,1,5.06-3.37c3.1,0,3.94,1.84,3.94,4.66v7.57h-1V63.71c0-2.08-.26-4-2.94-4a5.06,5.06,0,0,0-4.82,3.8,6,6,0,0,0-.19,1.62v5.83h-1Z"/></svg>
